<?xml version="1.0" encoding="utf-8"?>
<svg version="1.1" xmlns:xlink="http://www.w3.org/1999/xlink" width="355px" height="674px" xmlns="http://www.w3.org/2000/svg">
  <g transform="matrix(1 0 0 1 0 -23 )">
    <path d="M 0 23  L 355 23  L 355 697  L 0 697  L 0 23  " fill-rule="nonzero" fill="#cccccc" stroke="none" />
    <path d="M 25 48  L 330 48  L 330 672  L 25 672  L 25 48  " fill-rule="nonzero" fill="#ffffff" stroke="none" />
    <path d="M 211.225 177.35  C 196.315 177.35  184.6 165.635  184.6 150.725  C 184.6 135.815  196.315 124.1  211.225 124.1  C 226.135 124.1  237.85 135.815  237.85 150.725  C 237.85 165.635  226.135 177.35  211.225 177.35  " fill-rule="nonzero" fill="#cccccc" stroke="none" />
    <path d="M 34 663  L 34 329.7  L 105.75 178.2  L 206.2 299.4  L 263.6 269.1  L 321 299.4  L 321 663  L 34 663  " fill-rule="nonzero" fill="#169bd5" stroke="none" />
  </g>
</svg>