<?xml version="1.0" encoding="utf-8"?>
<svg version="1.1" xmlns:xlink="http://www.w3.org/1999/xlink" width="25px" height="25px" xmlns="http://www.w3.org/2000/svg">
  <g transform="matrix(1 0 0 1 -315 -49 )">
    <path d="M 327.5 49  C 334.5 49  340 54.5  340 61.5  C 340 68.5  334.5 74  327.5 74  C 320.5 74  315 68.5  315 61.5  C 315 54.5  320.5 49  327.5 49  Z " fill-rule="nonzero" fill="#fdfdfd" stroke="none" />
    <path d="M 327.5 49.5  C 334.22 49.5  339.5 54.78  339.5 61.5  C 339.5 68.22  334.22 73.5  327.5 73.5  C 320.78 73.5  315.5 68.22  315.5 61.5  C 315.5 54.78  320.78 49.5  327.5 49.5  Z " stroke-width="1" stroke="#ffffff" fill="none" />
  </g>
</svg>