<?xml version="1.0" encoding="utf-8"?>
<svg version="1.1" xmlns:xlink="http://www.w3.org/1999/xlink" width="345px" height="170px" xmlns="http://www.w3.org/2000/svg">
  <g transform="matrix(1 0 0 1 -5 -90 )">
    <path d="M 5 90  L 350 90  L 350 260  L 5 260  L 5 90  " fill-rule="nonzero" fill="#cccccc" stroke="none" />
    <path d="M 17 102  L 338 102  L 338 248  L 17 248  L 17 102  " fill-rule="nonzero" fill="#ffffff" stroke="none" />
    <path d="M 197.15 141  C 190.01 141  184.4 135.39  184.4 128.25  C 184.4 121.11  190.01 115.5  197.15 115.5  C 204.29 115.5  209.9 121.11  209.9 128.25  C 209.9 135.39  204.29 141  197.15 141  " fill-rule="nonzero" fill="#cccccc" stroke="none" />
    <path d="M 22 244  L 22 168.65  L 100 134.4  L 209.2 203.495652173913  L 271.6 154.95  L 334 203.495652173913  L 334 244  L 22 244  " fill-rule="nonzero" fill="#169bd5" stroke="none" />
  </g>
</svg>