<?xml version="1.0" encoding="utf-8"?>
<svg version="1.1" xmlns:xlink="http://www.w3.org/1999/xlink" width="67px" height="29px" xmlns="http://www.w3.org/2000/svg">
  <defs>
    <filter x="5px" y="273px" width="67px" height="29px" filterUnits="userSpaceOnUse" id="filter19">
      <feOffset dx="5" dy="0" in="SourceAlpha" result="shadowOffsetInner" />
      <feGaussianBlur stdDeviation="2.5" in="shadowOffsetInner" result="shadowGaussian" />
      <feComposite in2="shadowGaussian" operator="atop" in="SourceAlpha" result="shadowComposite" />
      <feColorMatrix type="matrix" values="0 0 0 0 0  0 0 0 0 0  0 0 0 0 0  0 0 0 0.349019607843137 0  " in="shadowComposite" />
    </filter>
    <g id="widget20">
      <path d="M 54.4 278  C 54.4 278  56.3 278.316666666667  56.3 278.316666666667  C 56.3 278.316666666667  62 287.5  62 287.5  C 62 287.5  56.3 296.683333333333  56.3 296.683333333333  C 56.3 296.683333333333  54.4 297  54.4 297  C 54.4 297  10 297  10 297  C 7.2 297  5 294.8  5 292  C 5 292  5 283  5 283  C 5 280.2  7.2 278  10 278  C 10 278  54.4 278  54.4 278  Z " fill-rule="nonzero" fill="#40a1c4" stroke="none" />
    </g>
  </defs>
  <g transform="matrix(1 0 0 1 -5 -273 )">
    <use xlink:href="#widget20" filter="url(#filter19)" />
    <use xlink:href="#widget20" />
  </g>
</svg>