<?xml version="1.0" encoding="utf-8"?>
<svg version="1.1" xmlns:xlink="http://www.w3.org/1999/xlink" width="355px" height="200px" xmlns="http://www.w3.org/2000/svg">
  <g>
    <path d="M 0 0  L 355 0  L 355 200  L 0 200  L 0 0  " fill-rule="nonzero" fill="#cccccc" stroke="none" />
    <path d="M 14 14  L 341 14  L 341 186  L 14 186  L 14 14  " fill-rule="nonzero" fill="#ffffff" stroke="none" />
    <path d="M 199.6 60  C 191.2 60  184.6 53.4  184.6 45  C 184.6 36.6  191.2 30  199.6 30  C 208 30  214.6 36.6  214.6 45  C 214.6 53.4  208 60  199.6 60  " fill-rule="nonzero" fill="#cccccc" stroke="none" />
    <path d="M 19 181  L 19 91.9  L 98.25 51.4  L 209.2 126.239436619718  L 272.6 75.7  L 336 126.239436619718  L 336 181  L 19 181  " fill-rule="nonzero" fill="#169bd5" stroke="none" />
  </g>
</svg>