<?xml version="1.0" encoding="utf-8"?>
<svg version="1.1" xmlns:xlink="http://www.w3.org/1999/xlink" width="105px" height="80px" xmlns="http://www.w3.org/2000/svg">
  <g transform="matrix(1 0 0 1 -10 -415 )">
    <path d="M 10 415  L 115 415  L 115 495  L 10 495  L 10 415  " fill-rule="nonzero" fill="#cccccc" stroke="none" />
    <path d="M 16 421  L 109 421  L 109 489  L 16 489  L 16 421  " fill-rule="nonzero" fill="#ffffff" stroke="none" />
    <path d="M 70.6 439  C 67.24 439  64.6 436.36  64.6 433  C 64.6 429.64  67.24 427  70.6 427  C 73.96 427  76.6 429.64  76.6 433  C 76.6 436.36  73.96 439  70.6 439  " fill-rule="nonzero" fill="#cccccc" stroke="none" />
    <path d="M 18 487  L 18 451.8  L 40.25 435.8  L 71.4 457.742857142857  L 89.2 445.4  L 107 457.742857142857  L 107 487  L 18 487  " fill-rule="nonzero" fill="#169bd5" stroke="none" />
  </g>
</svg>