<?xml version="1.0" encoding="utf-8"?>
<svg version="1.1" xmlns:xlink="http://www.w3.org/1999/xlink" width="120px" height="80px" xmlns="http://www.w3.org/2000/svg">
  <g transform="matrix(1 0 0 1 -10 -585 )">
    <path d="M 10 585  L 130 585  L 130 665  L 10 665  L 10 585  " fill-rule="nonzero" fill="#cccccc" stroke="none" />
    <path d="M 16 591  L 124 591  L 124 659  L 16 659  L 16 591  " fill-rule="nonzero" fill="#ffffff" stroke="none" />
    <path d="M 78.4 609  C 75.04 609  72.4 606.36  72.4 603  C 72.4 599.64  75.04 597  78.4 597  C 81.76 597  84.4 599.64  84.4 603  C 84.4 606.36  81.76 609  78.4 609  " fill-rule="nonzero" fill="#cccccc" stroke="none" />
    <path d="M 18 657  L 18 621.8  L 44 605.8  L 80.4 631.4  L 101.2 615.4  L 122 631.4  L 122 657  L 18 657  " fill-rule="nonzero" fill="#169bd5" stroke="none" />
  </g>
</svg>